<?xml version="1.0" encoding="UTF-8"?>
<svg version="1.1" xmlns="http://www.w3.org/2000/svg" width="550" height="600">
<path d="M0 0 C1.483894 -0.00128164 1.483894 -0.00128164 2.99776566 -0.00258917 C6.30965562 -0.00423512 9.62149484 0.00126295 12.93338013 0.00672913 C15.30861917 0.00701121 17.6838583 0.00685284 20.05909729 0.00628662 C25.83752455 0.0060293 31.61593521 0.01036402 37.39435868 0.01672428 C44.1195397 0.02387881 50.84471838 0.02536997 57.56990267 0.02651245 C69.56264736 0.02869973 81.55538523 0.03535102 93.54812622 0.04481506 C105.19623785 0.05399757 116.84434764 0.0610743 128.49246216 0.06532288 C129.21075175 0.0655856 129.92904134 0.06584832 130.66909729 0.06611901 C134.27263464 0.06742407 137.87617201 0.06868777 141.47970939 0.06993091 C171.36287252 0.08029342 201.24602314 0.0987263 231.12918091 0.12025452 C231.12918091 33.12025452 231.12918091 66.12025452 231.12918091 100.12025452 C216.84250122 100.16923889 202.55582153 100.21822327 187.83621216 100.26869202 C178.78086759 100.30408084 169.72552941 100.33996228 160.67019653 100.37806702 C146.29985004 100.43844574 131.92951553 100.49682366 117.55911255 100.54212952 C107.09234583 100.57513757 96.62563134 100.61501718 86.15892237 100.66304457 C80.62023611 100.68822209 75.0815841 100.71002896 69.54285622 100.72359848 C64.3217995 100.73649852 59.10086079 100.75863742 53.87986946 100.78763771 C51.97123751 100.79665173 50.06258659 100.80238915 48.15393448 100.80446815 C28.84752611 100.82924782 10.65670026 101.73947779 -3.87081909 116.12025452 C-18.21411673 132.6969376 -18.21071718 150.87635823 -18.13156128 171.74916077 C-18.1208434 175.11262542 -18.13150139 178.47555609 -18.14425659 181.83900452 C-18.15794732 201.96166696 -17.34435363 219.51521145 -3.06222534 235.09291077 C8.88050787 246.39009083 23.98332845 249.25789434 39.804245 249.2784729 C40.62864529 249.28341088 41.45304559 249.28834885 42.30242771 249.29343647 C45.0383781 249.30867719 47.77430528 249.31713528 50.51028442 249.32557678 C52.48203227 249.33516589 54.45377811 249.34517657 56.42552185 249.35557556 C61.7595166 249.38251882 67.09352011 249.40358541 72.42754483 249.42357755 C78.00892799 249.44550264 83.5902845 249.47285931 89.17164612 249.49963379 C99.73237323 249.54947269 110.29311521 249.59444405 120.85387129 249.63765615 C135.13054674 249.69635518 149.4071871 249.76259458 163.68383121 249.82840633 C186.16559077 249.93184327 208.64738061 250.02522397 231.12918091 250.12025452 C231.12918091 283.12025452 231.12918091 316.12025452 231.12918091 350.12025452 C216.84250122 350.16923889 202.55582153 350.21822327 187.83621216 350.26869202 C178.78086759 350.30408084 169.72552941 350.33996228 160.67019653 350.37806702 C146.29985004 350.43844574 131.92951553 350.49682366 117.55911255 350.54212952 C107.09234583 350.57513757 96.62563134 350.61501718 86.15892237 350.66304457 C80.62023611 350.68822209 75.0815841 350.71002896 69.54285622 350.72359848 C64.3217995 350.73649852 59.10086079 350.75863742 53.87986946 350.78763771 C51.97123751 350.79665173 50.06258659 350.80238915 48.15393448 350.80446815 C28.84752611 350.82924782 10.65670026 351.73947779 -3.87081909 366.12025452 C-17.71632152 382.12163103 -18.16768461 399.77453905 -18.18966675 419.95545959 C-18.19898165 421.92779952 -18.20915261 423.90013555 -18.22010803 425.87246704 C-18.24724607 431.18970125 -18.26250906 436.50690921 -18.27553606 441.82419419 C-18.29123797 447.39489112 -18.31800545 452.965535 -18.34356689 458.53619385 C-18.39023024 469.06844951 -18.42703435 479.6007153 -18.46023977 490.13302106 C-18.50572214 504.377045 -18.56654928 518.62100304 -18.62648773 532.86497211 C-18.72042199 555.28336644 -18.79395344 577.70178012 -18.87081909 600.12025452 C-51.87081909 600.12025452 -84.87081909 600.12025452 -118.87081909 600.12025452 C-118.97017671 506.58346219 -118.97017671 506.58346219 -118.99784851 460.36647034 C-118.99826268 459.67649812 -118.99867685 458.9865259 -118.99910358 458.27564543 C-119.00808326 443.27903233 -119.01639367 428.28241893 -119.02401508 413.28580508 C-119.02775694 405.93097956 -119.03164662 398.57615413 -119.03561401 391.22132874 C-119.03600629 390.48945312 -119.03639857 389.7575775 -119.03680273 389.00352383 C-119.04957628 365.30096037 -119.07210236 341.59841842 -119.09971075 317.89586798 C-119.12804116 293.52906977 -119.14648299 269.16228346 -119.15256406 244.79546907 C-119.15342847 241.35019793 -119.15440538 237.90492684 -119.15545082 234.45965576 C-119.15565309 233.78160764 -119.15585536 233.10355953 -119.15606376 232.4049645 C-119.15960257 221.51046279 -119.17349959 210.61599799 -119.19131519 199.7215113 C-119.20902321 188.75663839 -119.2154694 177.79179651 -119.21132322 166.82690907 C-119.20940441 160.89085346 -119.21231728 154.95490575 -119.22843552 149.0188694 C-119.24310488 143.57649806 -119.24372596 138.13430652 -119.23351578 132.69192666 C-119.23225508 130.73068229 -119.23600066 128.76942639 -119.24546864 126.80820447 C-119.40791563 91.05843672 -106.50194197 60.47828197 -81.74581909 34.62025452 C-63.45547605 16.76296974 -40.87355384 5.91388228 -15.87081909 1.12025452 C-15.02599409 0.94653604 -14.18116909 0.77281755 -13.31074333 0.59383488 C-8.85350073 -0.01980147 -4.49373033 -0.01422401 0 0 Z " fill="#ffffff" transform="translate(118.87081909179688,-0.1202545166015625)"/>
<path d="M0 0 C33 0 66 0 100 0 C100 198 100 396 100 600 C67 600 34 600 0 600 C0 402 0 204 0 0 Z " fill="#ffffff" transform="translate(450,0)"/>
</svg>
